<svg id="Layer_1" enable-background="new 0 0 256 256" height="512" viewBox="0 0 256 256" width="512" xmlns="http://www.w3.org/2000/svg"><ellipse cx="154.45" cy="97.518" fill="#a4c9ff" rx="86.85" ry="86.784"/><g fill="#e0ebfc"><path d="m154.45 187.352c-49.543 0-89.85-40.296-89.85-89.826s40.307-89.826 89.85-89.826 89.85 40.295 89.85 89.825-40.307 89.827-89.85 89.827zm0-173.652c-46.235 0-83.85 37.604-83.85 83.825s37.615 83.826 83.85 83.826c46.234 0 83.85-37.604 83.85-83.826s-37.615-83.825-83.85-83.825z"/><path d="m154.45 187.303c-14.153 0-27.325-9.571-37.087-26.949-9.455-16.833-14.663-39.148-14.663-62.835 0-23.688 5.208-46.002 14.663-62.835 9.762-17.379 22.934-26.949 37.087-26.949s27.324 9.57 37.087 26.949c9.455 16.833 14.662 39.147 14.662 62.835 0 23.687-5.207 46.002-14.662 62.835-9.763 17.377-22.933 26.949-37.087 26.949zm0-173.569c-25.227 0-45.75 37.585-45.75 83.784s20.523 83.784 45.75 83.784 45.749-37.585 45.749-83.784-20.522-83.784-45.749-83.784z"/><path d="m153.031 65.805c-23.999 0-46.562-9.339-63.533-26.297-1.155-1.154-1.175-3.021-.044-4.199 17.111-17.835 40.148-27.657 64.867-27.657 23.999 0 46.562 9.339 63.532 26.296 1.155 1.154 1.176 3.021.045 4.199-17.111 17.835-40.147 27.658-64.867 27.658zm-57.139-28.464c15.568 14.51 35.741 22.464 57.14 22.464 22.069 0 42.702-8.389 58.43-23.689-15.568-14.51-35.742-22.464-57.14-22.464-22.07-.001-42.702 8.388-58.43 23.689z"/><path d="m154.686 187.303c-23.999 0-46.562-9.339-63.533-26.297-1.155-1.154-1.175-3.021-.044-4.199 17.111-17.835 40.148-27.657 64.867-27.657 24 0 46.563 9.339 63.532 26.296 1.155 1.154 1.175 3.021.045 4.199-17.113 17.835-40.149 27.658-64.867 27.658zm-57.14-28.464c15.568 14.51 35.741 22.464 57.14 22.464 22.069 0 42.701-8.389 58.43-23.69-15.567-14.509-35.741-22.463-57.14-22.463-22.07-.001-42.702 8.388-58.43 23.689z"/><path d="m241.3 103.124h-173.7c-1.657 0-3-1.343-3-3s1.343-3 3-3h173.7c1.657 0 3 1.343 3 3s-1.343 3-3 3z"/></g><path d="m154.45 189.051c-50.481 0-91.55-41.059-91.55-91.525s41.069-91.526 91.55-91.526 91.55 41.059 91.55 91.525-41.069 91.526-91.55 91.526zm0-179.051c-48.275 0-87.55 39.264-87.55 87.525s39.275 87.525 87.55 87.525 87.55-39.263 87.55-87.525-39.274-87.525-87.55-87.525z" fill="#3762cc"/><path d="m122.467 248h-102.25c-4.538 0-8.217-3.679-8.217-8.217v-95.859c0-4.538 3.679-8.217 8.217-8.217h102.25c4.538 0 8.217 3.679 8.217 8.217v95.859c-.001 4.538-3.68 8.217-8.217 8.217z" fill="#f9a7a7"/><path d="m51.648 135.707v36.519c4.925 0 4.925-4.108 9.849-4.108 4.925 0 4.925 4.108 9.849 4.108 4.921 0 4.921-4.108 9.843-4.108 4.923 0 4.923 4.108 9.846 4.108v-36.519z" fill="#f9cfcf"/><path d="m122.467 250h-102.251c-5.633 0-10.216-4.583-10.216-10.217v-95.859c0-5.633 4.583-10.216 10.216-10.216h102.25c5.633 0 10.216 4.583 10.216 10.216v95.859c.001 5.634-4.582 10.217-10.215 10.217zm-102.251-112.292c-3.428 0-6.216 2.788-6.216 6.216v95.859c0 3.428 2.789 6.217 6.216 6.217h102.25c3.427 0 6.216-2.789 6.216-6.217v-95.859c0-3.428-2.789-6.216-6.216-6.216z" fill="#3762cc"/><path d="m50.8 237.403h-25.106c-1.891 0-3.424-1.533-3.424-3.424v-10.499c0-1.891 1.533-3.424 3.424-3.424h25.106c1.891 0 3.424 1.533 3.424 3.424v10.499c0 1.891-1.533 3.424-3.424 3.424z" fill="#e0ebfc"/><path d="m118.506 229.398h-14.543c-1.515 0-2.742-1.228-2.742-2.742 0-1.515 1.228-2.742 2.742-2.742h14.543c1.515 0 2.742 1.228 2.742 2.742 0 1.514-1.228 2.742-2.742 2.742z" fill="#e0ebfc"/><path d="m118.506 236.681h-14.543c-1.515 0-2.742-1.228-2.742-2.742 0-1.515 1.228-2.742 2.742-2.742h14.543c1.515 0 2.742 1.228 2.742 2.742 0 1.514-1.228 2.742-2.742 2.742z" fill="#e0ebfc"/><path d="m24.47 101.736 27.795 20.383c1.321.969 3.183.025 3.183-1.613v-4.559c0-1.105.895-2 2-2h45.765c1.105 0 2-.895 2-2v-23.647c0-1.105-.895-2-2-2h-45.766c-1.105 0-2-.895-2-2v-4.559c0-1.638-1.862-2.582-3.183-1.613l-27.794 20.383c-1.09.799-1.09 2.426 0 3.225z" fill="#ffea92"/><path d="m149.465 134.305c-9.272-1.399-15.989-7.141-16.75-16.524-.079-.977.714-1.81 1.694-1.81h7.336c.838 0 1.532.617 1.673 1.443.555 3.264 2.189 5.816 5.029 7.164 1.134.538 2.447-.27 2.447-1.525v-17.719c0-.76-.506-1.425-1.237-1.631-8.335-2.357-17.014-5.436-17.014-18.457 0-10.373 6.826-17.649 16.834-19.205.818-.127 1.417-.839 1.417-1.667v-4.767c0-.936.759-1.694 1.694-1.694h2.261c.936 0 1.694.759 1.694 1.694v4.664c0 .827.598 1.544 1.416 1.668 8.634 1.303 14.602 6.681 15.936 15.927.146 1.016-.657 1.926-1.684 1.926h-7.266c-.812 0-1.485-.581-1.662-1.373-.543-2.437-1.936-4.646-4.087-6.057-1.139-.747-2.653.04-2.653 1.402v17.038c0 .766.514 1.435 1.254 1.636 8.324 2.265 16.912 5.26 16.912 18.272 0 9.016-5.916 17.765-16.749 19.493-.817.13-1.417.839-1.417 1.666v4.77c0 .936-.759 1.694-1.694 1.694h-2.261c-.936 0-1.694-.759-1.694-1.694v-4.667c0-.831-.606-1.543-1.429-1.667zm1.429-42.383v-14.901c0-1.146-1.127-1.997-2.208-1.617-3.582 1.258-5.961 4.306-5.961 9.259 0 4.585 2.313 7.107 5.712 8.775 1.131.557 2.457-.256 2.457-1.516zm5.65 16.297v14.881c0 1.231 1.267 2.039 2.396 1.549 3.715-1.616 5.775-5.148 5.775-9.356 0-4.511-2.318-6.954-5.724-8.596-1.131-.546-2.447.266-2.447 1.522z" fill="#6bdddd"/><path d="m53.444 124.51c-.833 0-1.66-.263-2.362-.777l-27.795-20.383c-1.023-.751-1.634-1.957-1.634-3.226 0-1.27.611-2.476 1.634-3.227l27.795-20.383c1.224-.896 2.823-1.027 4.173-.342 1.352.686 2.192 2.053 2.192 3.568v4.56h45.766c2.206 0 4 1.794 4 4v23.647c0 2.206-1.794 4-4 4h-45.766v4.56c0 1.516-.84 2.883-2.191 3.567-.575.291-1.195.436-1.812.436zm-27.792-24.387 27.795 20.383v-4.559c0-2.206 1.794-4 4-4h45.766v-23.647h-45.766c-2.206 0-4-1.794-4-4v-4.559z" fill="#3762cc"/><path d="m154.85 144.335h-2.261c-2.038 0-3.695-1.657-3.695-3.694v-4.4c-10.593-1.697-17.378-8.52-18.172-18.297-.082-1.014.269-2.026.961-2.777.701-.76 1.694-1.195 2.727-1.195h7.336c1.806 0 3.338 1.307 3.645 3.107.439 2.586 1.617 4.428 3.504 5.481v-16.995c-7.354-2.081-18.251-5.311-18.251-20.319 0-11.025 7.153-19.295 18.251-21.137v-4.501c0-2.038 1.657-3.695 3.695-3.695h2.261c2.037 0 3.694 1.657 3.694 3.695v4.398c9.633 1.558 15.943 7.949 17.331 17.574.152 1.054-.162 2.122-.863 2.932-.705.813-1.726 1.28-2.8 1.28h-7.267c-1.743 0-3.229-1.209-3.613-2.939-.412-1.848-1.394-3.427-2.788-4.502v16.218c7.321 1.995 18.166 5.098 18.166 20.143 0 10.818-7.456 19.591-18.166 21.424v4.506c-.001 2.036-1.658 3.693-3.695 3.693zm-1.956-4h1.65v-4.465c0-1.821 1.304-3.353 3.1-3.641 10.408-1.66 15.066-9.994 15.066-17.519 0-11.247-6.69-13.962-15.438-16.343-1.606-.438-2.729-1.903-2.729-3.565v-17.037c0-1.356.74-2.599 1.932-3.242 1.205-.652 2.667-.587 3.818.167 2.453 1.608 4.187 4.125 4.898 7.103h6.669c-1.258-7.868-6.161-12.663-14.2-13.876-1.777-.27-3.117-1.837-3.117-3.646v-4.358h-1.65v4.461c0 1.831-1.309 3.363-3.11 3.644-9.339 1.452-15.141 8.054-15.141 17.229 0 11.238 6.743 14.039 15.559 16.532 1.586.449 2.692 1.912 2.692 3.557v17.719c0 1.271-.642 2.437-1.716 3.116-1.085.688-2.426.767-3.588.217-3.267-1.551-5.374-4.457-6.104-8.415h-6.745c.779 7.806 6.236 13.03 15.023 14.356h-.001c1.785.269 3.131 1.837 3.131 3.646v4.36zm5.352-13.541c-.712 0-1.419-.205-2.035-.608-1.044-.685-1.667-1.838-1.667-3.086v-14.881c0-1.277.646-2.445 1.728-3.125 1.088-.684 2.429-.756 3.587-.199 4.613 2.224 6.856 5.625 6.856 10.398 0 5.105-2.608 9.288-6.978 11.189-.479.209-.986.312-1.491.312zm.298-18.085v13.917c2.657-1.336 4.171-3.983 4.171-7.333 0-3.11-1.215-5.046-4.171-6.584zm-9.349-13.091c-.558 0-1.118-.127-1.641-.384-4.596-2.256-6.83-5.713-6.83-10.57 0-5.455 2.66-9.519 7.298-11.146 1.104-.387 2.337-.212 3.301.471.983.696 1.57 1.831 1.57 3.033v14.9c0 1.283-.65 2.454-1.739 3.133-.6.375-1.278.563-1.959.563zm-.301-18.151c-2.73 1.151-4.169 3.629-4.169 7.197 0 3.163 1.253 5.209 4.169 6.763z" fill="#3762cc"/></svg>